<svg 
 xmlns="http://www.w3.org/2000/svg"
 xmlns:xlink="http://www.w3.org/1999/xlink">
<path fill-rule="evenodd"  fill="rgb(206, 208, 212)"
 d="M14.532,16.0 L1.466,16.0 C0.656,16.0 0.0,15.349 0.0,14.557 L0.0,3.214 C0.0,2.437 0.642,1.804 1.423,1.781 L1.423,3.716 C1.423,4.591 2.149,5.296 3.45,5.296 L4.66,5.296 C4.961,5.296 5.697,4.591 5.697,3.716 L5.697,1.774 L10.303,1.774 L10.303,3.716 C10.303,4.591 11.39,5.296 11.932,5.296 L12.955,5.296 C13.850,5.296 14.575,4.591 14.575,3.716 L14.575,1.781 C15.357,1.804 15.999,2.437 15.999,3.214 L15.999,14.557 C15.999,15.347 15.342,16.0 14.532,16.0 ZM14.101,7.991 C14.101,7.649 13.818,7.371 13.466,7.371 L2.505,7.371 C2.154,7.371 1.870,7.649 1.870,7.991 L1.870,13.850 C1.870,14.193 2.154,14.471 2.505,14.471 L13.466,14.471 C13.818,14.471 14.101,14.193 14.101,13.850 L14.101,7.991 ZM11.886,13.623 L10.591,13.623 C10.386,13.623 10.220,13.462 10.220,13.261 L10.220,11.994 C10.220,11.794 10.386,11.631 10.591,11.631 L11.886,11.631 C12.91,11.631 12.257,11.794 12.257,11.994 L12.257,13.261 C12.257,13.462 12.91,13.623 11.886,13.623 ZM11.886,10.457 L10.591,10.457 C10.386,10.457 10.220,10.295 10.220,10.94 L10.220,8.827 C10.220,8.627 10.386,8.464 10.591,8.464 L11.886,8.464 C12.91,8.464 12.257,8.627 12.257,8.827 L12.257,10.94 C12.257,10.295 12.91,10.457 11.886,10.457 ZM8.648,13.623 L7.351,13.623 C7.147,13.623 6.980,13.462 6.980,13.261 L6.980,11.994 C6.980,11.794 7.147,11.631 7.351,11.631 L8.648,11.631 C8.852,11.631 9.18,11.794 9.18,11.994 L9.18,13.261 C9.18,13.462 8.852,13.623 8.648,13.623 ZM8.648,10.457 L7.351,10.457 C7.147,10.457 6.980,10.295 6.980,10.94 L6.980,8.827 C6.980,8.627 7.147,8.464 7.351,8.464 L8.648,8.464 C8.852,8.464 9.18,8.627 9.18,8.827 L9.18,10.94 C9.18,10.295 8.852,10.457 8.648,10.457 ZM5.408,13.623 L4.112,13.623 C3.907,13.623 3.741,13.462 3.741,13.261 L3.741,11.994 C3.741,11.794 3.907,11.631 4.112,11.631 L5.408,11.631 C5.613,11.631 5.780,11.794 5.780,11.994 L5.780,13.261 C5.780,13.462 5.613,13.623 5.408,13.623 ZM5.408,10.457 L4.112,10.457 C3.907,10.457 3.741,10.295 3.741,10.94 L3.741,8.827 C3.741,8.627 3.907,8.464 4.112,8.464 L5.408,8.464 C5.613,8.464 5.780,8.627 5.780,8.827 L5.780,10.94 C5.780,10.295 5.613,10.457 5.408,10.457 ZM12.931,4.259 L11.920,4.259 C11.613,4.259 11.364,4.16 11.364,3.716 L11.364,0.543 C11.364,0.243 11.613,0.0 11.920,0.0 L12.931,0.0 C13.238,0.0 13.487,0.243 13.487,0.543 L13.487,3.716 C13.487,4.16 13.238,4.259 12.931,4.259 ZM4.51,4.259 L3.40,4.259 C2.733,4.259 2.485,4.16 2.485,3.716 L2.485,0.543 C2.485,0.243 2.733,0.0 3.40,0.0 L4.51,0.0 C4.358,0.0 4.606,0.243 4.606,0.543 L4.606,3.716 C4.606,4.16 4.358,4.259 4.51,4.259 Z"/>
</svg>