<svg 
 xmlns="http://www.w3.org/2000/svg"
 xmlns:xlink="http://www.w3.org/1999/xlink">
<path fill-rule="evenodd"  fill="rgb(206, 208, 212)"
 d="M17.749,6.108 C17.581,6.502 17.377,6.813 17.137,7.41 L10.360,13.657 C10.126,13.885 9.842,13.999 9.507,13.999 C9.178,13.999 8.890,13.885 8.644,13.657 L3.990,9.111 C3.757,8.883 3.639,8.606 3.639,8.279 C3.639,7.959 3.757,7.678 3.990,7.438 L10.768,0.840 C11.7,0.606 11.330,0.407 11.733,0.244 C12.138,0.81 12.509,0.0 12.843,0.0 L16.786,0.0 C17.115,0.0 17.400,0.117 17.638,0.351 C17.879,0.585 18.0,0.862 18.0,1.182 L18.0,5.27 C18.0,5.353 17.916,5.713 17.749,6.108 ZM15.824,2.121 C15.587,1.889 15.300,1.773 14.966,1.773 C14.631,1.773 14.346,1.889 14.109,2.121 C13.872,2.351 13.753,2.630 13.753,2.957 C13.753,3.283 13.872,3.562 14.109,3.793 C14.346,4.24 14.631,4.139 14.966,4.139 C15.300,4.139 15.587,4.24 15.824,3.793 C16.61,3.562 16.179,3.283 16.179,2.957 C16.179,2.630 16.61,2.351 15.824,2.121 ZM9.251,0.840 L2.474,7.438 C2.239,7.678 2.122,7.959 2.122,8.279 C2.122,8.606 2.239,8.883 2.474,9.111 L6.929,13.454 C6.739,13.645 6.572,13.784 6.426,13.870 C6.281,13.956 6.94,13.999 5.867,13.999 C5.538,13.999 5.250,13.885 5.4,13.657 L0.351,9.111 C0.117,8.883 0.0,8.606 0.0,8.279 C0.0,7.959 0.117,7.678 0.351,7.438 L7.128,0.840 C7.367,0.606 7.690,0.407 8.94,0.244 C8.499,0.81 8.868,0.0 9.203,0.0 L11.326,0.0 C10.991,0.0 10.623,0.81 10.218,0.244 C9.813,0.407 9.491,0.606 9.251,0.840 Z"/>
</svg>