<svg 
 xmlns="http://www.w3.org/2000/svg"
 xmlns:xlink="http://www.w3.org/1999/xlink"
 width="28px" height="21px">
<path fill-rule="evenodd"  
 d="M27.48,15.131 C26.487,18.168 23.954,20.469 20.889,20.725 L15.366,20.728 L5.845,20.728 C2.573,20.409 0.165,17.737 0.170,14.507 C0.174,12.606 1.96,10.822 2.614,9.722 C2.554,9.435 2.524,9.142 2.524,8.846 C2.539,7.688 2.998,6.609 3.817,5.803 C4.639,4.994 5.729,4.582 6.874,4.570 C7.130,4.573 7.383,4.598 7.633,4.647 C8.573,3.26 10.42,1.809 11.825,1.184 C13.797,0.495 15.921,0.616 17.803,1.527 C20.98,2.637 21.683,4.747 22.125,7.241 C25.522,8.170 27.704,11.592 27.48,15.131 ZM21.293,8.627 L20.730,8.521 L20.669,7.953 C20.432,5.753 19.109,3.868 17.129,2.910 C15.620,2.181 13.919,2.83 12.335,2.636 C10.739,3.195 9.456,4.347 8.724,5.880 L8.421,6.512 L7.762,6.273 C7.470,6.167 7.166,6.111 6.857,6.108 C6.846,6.108 6.836,6.108 6.823,6.108 C6.101,6.108 5.420,6.387 4.900,6.897 C4.372,7.417 4.76,8.114 4.67,8.858 C4.66,9.174 4.122,9.491 4.232,9.790 L4.457,10.397 L3.896,10.720 C2.552,11.498 1.715,12.950 1.713,14.511 C1.709,16.944 3.519,18.957 5.922,19.194 L20.825,19.190 C23.134,18.995 25.95,17.210 25.530,14.852 C26.68,11.957 24.167,9.164 21.293,8.627 ZM14.121,17.995 C14.86,18.43 14.45,18.86 13.998,18.121 C13.748,18.304 13.395,18.249 13.213,17.995 L9.703,13.160 C9.633,13.63 9.596,12.946 9.596,12.825 C9.600,12.516 9.852,12.266 10.160,12.269 L11.963,12.269 L11.963,6.775 L15.368,6.775 L15.368,12.269 L17.174,12.269 C17.293,12.268 17.411,12.305 17.508,12.376 C17.757,12.559 17.812,12.910 17.631,13.160 L14.121,17.995 Z"/>
</svg>