<svg 
 xmlns="http://www.w3.org/2000/svg"
 xmlns:xlink="http://www.w3.org/1999/xlink"
 width="22px" height="24px">
<path fill-rule="evenodd"
 d="M17.116,15.444 C16.34,15.444 15.16,15.876 14.250,16.658 C14.129,16.783 14.13,16.919 13.904,17.64 L8.90,13.453 C8.211,13.52 8.273,12.641 8.273,12.224 C8.273,11.807 8.211,11.395 8.90,10.995 L13.905,7.412 C14.671,8.435 15.849,9.36 17.116,9.36 C19.353,9.36 21.170,7.175 21.170,4.888 C21.170,2.602 19.353,0.742 17.116,0.742 C14.882,0.742 13.64,2.602 13.64,4.888 C13.64,5.286 13.120,5.681 13.233,6.66 L7.402,9.659 C6.635,8.662 5.470,8.77 4.220,8.77 C1.986,8.77 0.168,9.937 0.168,12.224 C0.168,14.510 1.986,16.370 4.220,16.370 C5.470,16.370 6.634,15.786 7.401,14.789 L13.233,18.410 C13.120,18.795 13.64,19.191 13.64,19.591 C13.64,20.699 13.486,21.740 14.250,22.522 C15.16,23.307 16.34,23.738 17.116,23.738 C18.198,23.738 19.216,23.307 19.982,22.522 C20.746,21.740 21.170,20.699 21.170,19.591 C21.170,18.483 20.746,17.442 19.982,16.658 C19.216,15.876 18.198,15.444 17.116,15.444 Z"/>
</svg>