<svg 
 xmlns="http://www.w3.org/2000/svg"
 xmlns:xlink="http://www.w3.org/1999/xlink"
 width="24px" height="22px">
<path fill-rule="evenodd"
 d="M23.164,7.832 C23.164,7.535 23.142,7.340 23.124,7.229 L23.125,7.229 C23.124,7.219 23.122,7.210 23.120,7.200 C23.120,7.195 23.120,7.184 23.119,7.179 L23.119,7.179 C22.938,5.360 22.187,3.762 21.37,2.611 C19.877,1.447 18.299,0.743 16.562,0.745 C14.625,0.745 12.838,1.607 11.613,3.20 C10.415,1.599 8.675,0.742 6.765,0.745 C5.29,0.743 3.452,1.447 2.292,2.610 C1.141,3.761 0.391,5.358 0.211,7.177 L0.211,7.177 C0.210,7.180 0.209,7.191 0.209,7.195 C0.207,7.206 0.205,7.217 0.204,7.229 L0.205,7.229 C0.186,7.342 0.165,7.536 0.165,7.833 C0.165,8.269 0.215,8.891 0.403,9.673 L0.403,9.673 C0.885,11.667 1.998,13.476 3.605,14.898 L3.605,14.897 L11.98,21.537 C11.383,21.787 11.812,21.790 12.96,21.541 L19.717,14.902 L19.722,14.898 C21.329,13.476 22.443,11.667 22.924,9.673 L22.924,9.674 C23.114,8.891 23.164,8.267 23.164,7.832 ZM21.476,9.339 L21.476,9.340 C21.65,11.36 20.118,12.584 18.722,13.820 L18.727,13.816 L11.603,20.20 L4.606,13.820 L4.606,13.820 C3.210,12.584 2.263,11.36 1.853,9.340 L1.853,9.340 C1.690,8.671 1.653,8.161 1.653,7.833 C1.653,7.583 1.675,7.438 1.681,7.410 L1.687,7.359 C1.830,5.826 2.454,4.530 3.359,3.625 C4.266,2.720 5.442,2.201 6.765,2.199 C8.503,2.202 10.38,3.93 10.963,4.628 C11.94,4.849 11.337,4.987 11.602,4.988 C11.865,4.989 12.108,4.854 12.243,4.634 C13.167,3.128 14.793,2.199 16.562,2.199 C17.888,2.201 19.62,2.721 19.971,3.626 C20.876,4.530 21.500,5.826 21.641,7.359 L21.649,7.409 C21.653,7.438 21.676,7.583 21.676,7.832 C21.676,8.161 21.637,8.670 21.476,9.339 Z"/>
</svg>